<?xml version="1.0" encoding="UTF-8" standalone="no"?>
<!DOCTYPE svg PUBLIC "-//W3C//DTD SVG 1.1//EN"
 "http://www.w3.org/Graphics/SVG/1.1/DTD/svg11.dtd">
<!-- Generated by graphviz version 2.38.0 (20140413.2041)
 -->
<!-- Title: Tree Pages: 1 -->
<svg width="1560pt" height="460pt"
 viewBox="0.00 0.00 1559.50 460.00" xmlns="http://www.w3.org/2000/svg" xmlns:xlink="http://www.w3.org/1999/xlink">
<g id="graph0" class="graph" transform="scale(1 1) rotate(0) translate(4 456)">
<title>Tree</title>
<polygon fill="white" stroke="none" points="-4,4 -4,-456 1555.5,-456 1555.5,4 -4,4"/>
<!-- 0 -->
<g id="node1" class="node"><title>0</title>
<path fill="#f2c19d" stroke="black" d="M951,-452C951,-452 704,-452 704,-452 698,-452 692,-446 692,-440 692,-440 692,-396 692,-396 692,-390 698,-384 704,-384 704,-384 951,-384 951,-384 957,-384 963,-390 963,-396 963,-396 963,-440 963,-440 963,-446 957,-452 951,-452"/>
<text text-anchor="middle" x="827.5" y="-436.8" font-family="Helvetica,sans-Serif" font-size="14.00">activity_score_training_volume &lt;= 0.275</text>
<text text-anchor="middle" x="827.5" y="-421.8" font-family="Helvetica,sans-Serif" font-size="14.00">gini = 0.499</text>
<text text-anchor="middle" x="827.5" y="-406.8" font-family="Helvetica,sans-Serif" font-size="14.00">samples = 7461</text>
<text text-anchor="middle" x="827.5" y="-391.8" font-family="Helvetica,sans-Serif" font-size="14.00">value = [4788, 2176, 497]</text>
</g>
<!-- 1 -->
<g id="node2" class="node"><title>1</title>
<path fill="#d3b9f6" stroke="black" d="M751.5,-348C751.5,-348 629.5,-348 629.5,-348 623.5,-348 617.5,-342 617.5,-336 617.5,-336 617.5,-292 617.5,-292 617.5,-286 623.5,-280 629.5,-280 629.5,-280 751.5,-280 751.5,-280 757.5,-280 763.5,-286 763.5,-292 763.5,-292 763.5,-336 763.5,-336 763.5,-342 757.5,-348 751.5,-348"/>
<text text-anchor="middle" x="690.5" y="-332.8" font-family="Helvetica,sans-Serif" font-size="14.00">sleep_light &lt;= 0.399</text>
<text text-anchor="middle" x="690.5" y="-317.8" font-family="Helvetica,sans-Serif" font-size="14.00">gini = 0.525</text>
<text text-anchor="middle" x="690.5" y="-302.8" font-family="Helvetica,sans-Serif" font-size="14.00">samples = 200</text>
<text text-anchor="middle" x="690.5" y="-287.8" font-family="Helvetica,sans-Serif" font-size="14.00">value = [72, 11, 117]</text>
</g>
<!-- 0&#45;&gt;1 -->
<g id="edge1" class="edge"><title>0&#45;&gt;1</title>
<path fill="none" stroke="black" d="M783.02,-383.884C770.338,-374.442 756.399,-364.064 743.274,-354.292"/>
<polygon fill="black" stroke="black" points="745.337,-351.464 735.226,-348.299 741.156,-357.079 745.337,-351.464"/>
<text text-anchor="middle" x="738.848" y="-369.336" font-family="Helvetica,sans-Serif" font-size="14.00">True</text>
</g>
<!-- 48 -->
<g id="node15" class="node"><title>48</title>
<path fill="#f2c09c" stroke="black" d="M1069,-348C1069,-348 860,-348 860,-348 854,-348 848,-342 848,-336 848,-336 848,-292 848,-292 848,-286 854,-280 860,-280 860,-280 1069,-280 1069,-280 1075,-280 1081,-286 1081,-292 1081,-292 1081,-336 1081,-336 1081,-342 1075,-348 1069,-348"/>
<text text-anchor="middle" x="964.5" y="-332.8" font-family="Helvetica,sans-Serif" font-size="14.00">sleep_midpoint_at_delta &lt;= 0.186</text>
<text text-anchor="middle" x="964.5" y="-317.8" font-family="Helvetica,sans-Serif" font-size="14.00">gini = 0.487</text>
<text text-anchor="middle" x="964.5" y="-302.8" font-family="Helvetica,sans-Serif" font-size="14.00">samples = 7261</text>
<text text-anchor="middle" x="964.5" y="-287.8" font-family="Helvetica,sans-Serif" font-size="14.00">value = [4716, 2165, 380]</text>
</g>
<!-- 0&#45;&gt;48 -->
<g id="edge14" class="edge"><title>0&#45;&gt;48</title>
<path fill="none" stroke="black" d="M871.98,-383.884C884.662,-374.442 898.601,-364.064 911.726,-354.292"/>
<polygon fill="black" stroke="black" points="913.844,-357.079 919.774,-348.299 909.663,-351.464 913.844,-357.079"/>
<text text-anchor="middle" x="916.152" y="-369.336" font-family="Helvetica,sans-Serif" font-size="14.00">False</text>
</g>
<!-- 2 -->
<g id="node3" class="node"><title>2</title>
<path fill="#f4caac" stroke="black" d="M459.5,-244C459.5,-244 263.5,-244 263.5,-244 257.5,-244 251.5,-238 251.5,-232 251.5,-232 251.5,-188 251.5,-188 251.5,-182 257.5,-176 263.5,-176 263.5,-176 459.5,-176 459.5,-176 465.5,-176 471.5,-182 471.5,-188 471.5,-188 471.5,-232 471.5,-232 471.5,-238 465.5,-244 459.5,-244"/>
<text text-anchor="middle" x="361.5" y="-228.8" font-family="Helvetica,sans-Serif" font-size="14.00">sleep_breath_average &lt;= 0.446</text>
<text text-anchor="middle" x="361.5" y="-213.8" font-family="Helvetica,sans-Serif" font-size="14.00">gini = 0.543</text>
<text text-anchor="middle" x="361.5" y="-198.8" font-family="Helvetica,sans-Serif" font-size="14.00">samples = 99</text>
<text text-anchor="middle" x="361.5" y="-183.8" font-family="Helvetica,sans-Serif" font-size="14.00">value = [59, 10, 30]</text>
</g>
<!-- 1&#45;&gt;2 -->
<g id="edge2" class="edge"><title>1&#45;&gt;2</title>
<path fill="none" stroke="black" d="M617.484,-290.363C576.481,-277.651 524.359,-261.491 477.863,-247.076"/>
<polygon fill="black" stroke="black" points="478.621,-243.647 468.033,-244.028 476.548,-250.333 478.621,-243.647"/>
</g>
<!-- 33 -->
<g id="node10" class="node"><title>33</title>
<path fill="#9558e9" stroke="black" d="M774.5,-244C774.5,-244 606.5,-244 606.5,-244 600.5,-244 594.5,-238 594.5,-232 594.5,-232 594.5,-188 594.5,-188 594.5,-182 600.5,-176 606.5,-176 606.5,-176 774.5,-176 774.5,-176 780.5,-176 786.5,-182 786.5,-188 786.5,-188 786.5,-232 786.5,-232 786.5,-238 780.5,-244 774.5,-244"/>
<text text-anchor="middle" x="690.5" y="-228.8" font-family="Helvetica,sans-Serif" font-size="14.00">sleep_hr_average &lt;= 0.661</text>
<text text-anchor="middle" x="690.5" y="-213.8" font-family="Helvetica,sans-Serif" font-size="14.00">gini = 0.241</text>
<text text-anchor="middle" x="690.5" y="-198.8" font-family="Helvetica,sans-Serif" font-size="14.00">samples = 101</text>
<text text-anchor="middle" x="690.5" y="-183.8" font-family="Helvetica,sans-Serif" font-size="14.00">value = [13, 1, 87]</text>
</g>
<!-- 1&#45;&gt;33 -->
<g id="edge9" class="edge"><title>1&#45;&gt;33</title>
<path fill="none" stroke="black" d="M690.5,-279.884C690.5,-271.778 690.5,-262.982 690.5,-254.472"/>
<polygon fill="black" stroke="black" points="694,-254.299 690.5,-244.299 687,-254.299 694,-254.299"/>
</g>
<!-- 3 -->
<g id="node4" class="node"><title>3</title>
<path fill="#ea985d" stroke="black" d="M221,-140C221,-140 12,-140 12,-140 6,-140 0,-134 0,-128 0,-128 0,-84 0,-84 0,-78 6,-72 12,-72 12,-72 221,-72 221,-72 227,-72 233,-78 233,-84 233,-84 233,-128 233,-128 233,-134 227,-140 221,-140"/>
<text text-anchor="middle" x="116.5" y="-124.8" font-family="Helvetica,sans-Serif" font-size="14.00">sleep_midpoint_at_delta &lt;= 0.246</text>
<text text-anchor="middle" x="116.5" y="-109.8" font-family="Helvetica,sans-Serif" font-size="14.00">gini = 0.26</text>
<text text-anchor="middle" x="116.5" y="-94.8" font-family="Helvetica,sans-Serif" font-size="14.00">samples = 52</text>
<text text-anchor="middle" x="116.5" y="-79.8" font-family="Helvetica,sans-Serif" font-size="14.00">value = [44, 0, 8]</text>
</g>
<!-- 2&#45;&gt;3 -->
<g id="edge3" class="edge"><title>2&#45;&gt;3</title>
<path fill="none" stroke="black" d="M281.956,-175.884C257.548,-165.722 230.536,-154.476 205.537,-144.069"/>
<polygon fill="black" stroke="black" points="206.641,-140.737 196.064,-140.125 203.951,-147.199 206.641,-140.737"/>
</g>
<!-- 14 -->
<g id="node7" class="node"><title>14</title>
<path fill="#e3d4f9" stroke="black" d="M459.5,-140C459.5,-140 263.5,-140 263.5,-140 257.5,-140 251.5,-134 251.5,-128 251.5,-128 251.5,-84 251.5,-84 251.5,-78 257.5,-72 263.5,-72 263.5,-72 459.5,-72 459.5,-72 465.5,-72 471.5,-78 471.5,-84 471.5,-84 471.5,-128 471.5,-128 471.5,-134 465.5,-140 459.5,-140"/>
<text text-anchor="middle" x="361.5" y="-124.8" font-family="Helvetica,sans-Serif" font-size="14.00">sleep_breath_average &lt;= 0.661</text>
<text text-anchor="middle" x="361.5" y="-109.8" font-family="Helvetica,sans-Serif" font-size="14.00">gini = 0.634</text>
<text text-anchor="middle" x="361.5" y="-94.8" font-family="Helvetica,sans-Serif" font-size="14.00">samples = 47</text>
<text text-anchor="middle" x="361.5" y="-79.8" font-family="Helvetica,sans-Serif" font-size="14.00">value = [15, 10, 22]</text>
</g>
<!-- 2&#45;&gt;14 -->
<g id="edge6" class="edge"><title>2&#45;&gt;14</title>
<path fill="none" stroke="black" d="M361.5,-175.884C361.5,-167.778 361.5,-158.982 361.5,-150.472"/>
<polygon fill="black" stroke="black" points="365,-150.299 361.5,-140.299 358,-150.299 365,-150.299"/>
</g>
<!-- 4 -->
<g id="node5" class="node"><title>4</title>
<path fill="#c0c0c0" stroke="black" d="M95.5,-36C95.5,-36 65.5,-36 65.5,-36 59.5,-36 53.5,-30 53.5,-24 53.5,-24 53.5,-12 53.5,-12 53.5,-6 59.5,-0 65.5,-0 65.5,-0 95.5,-0 95.5,-0 101.5,-0 107.5,-6 107.5,-12 107.5,-12 107.5,-24 107.5,-24 107.5,-30 101.5,-36 95.5,-36"/>
<text text-anchor="middle" x="80.5" y="-14.3" font-family="Helvetica,sans-Serif" font-size="14.00">(...)</text>
</g>
<!-- 3&#45;&gt;4 -->
<g id="edge4" class="edge"><title>3&#45;&gt;4</title>
<path fill="none" stroke="black" d="M102.684,-71.9961C99.036,-63.2804 95.1447,-53.9846 91.6564,-45.6514"/>
<polygon fill="black" stroke="black" points="94.8751,-44.2763 87.7851,-36.4034 88.418,-46.9793 94.8751,-44.2763"/>
</g>
<!-- 11 -->
<g id="node6" class="node"><title>11</title>
<path fill="#c0c0c0" stroke="black" d="M167.5,-36C167.5,-36 137.5,-36 137.5,-36 131.5,-36 125.5,-30 125.5,-24 125.5,-24 125.5,-12 125.5,-12 125.5,-6 131.5,-0 137.5,-0 137.5,-0 167.5,-0 167.5,-0 173.5,-0 179.5,-6 179.5,-12 179.5,-12 179.5,-24 179.5,-24 179.5,-30 173.5,-36 167.5,-36"/>
<text text-anchor="middle" x="152.5" y="-14.3" font-family="Helvetica,sans-Serif" font-size="14.00">(...)</text>
</g>
<!-- 3&#45;&gt;11 -->
<g id="edge5" class="edge"><title>3&#45;&gt;11</title>
<path fill="none" stroke="black" d="M130.316,-71.9961C133.964,-63.2804 137.855,-53.9846 141.344,-45.6514"/>
<polygon fill="black" stroke="black" points="144.582,-46.9793 145.215,-36.4034 138.125,-44.2763 144.582,-46.9793"/>
</g>
<!-- 15 -->
<g id="node8" class="node"><title>15</title>
<path fill="#c0c0c0" stroke="black" d="M340.5,-36C340.5,-36 310.5,-36 310.5,-36 304.5,-36 298.5,-30 298.5,-24 298.5,-24 298.5,-12 298.5,-12 298.5,-6 304.5,-0 310.5,-0 310.5,-0 340.5,-0 340.5,-0 346.5,-0 352.5,-6 352.5,-12 352.5,-12 352.5,-24 352.5,-24 352.5,-30 346.5,-36 340.5,-36"/>
<text text-anchor="middle" x="325.5" y="-14.3" font-family="Helvetica,sans-Serif" font-size="14.00">(...)</text>
</g>
<!-- 14&#45;&gt;15 -->
<g id="edge7" class="edge"><title>14&#45;&gt;15</title>
<path fill="none" stroke="black" d="M347.684,-71.9961C344.036,-63.2804 340.145,-53.9846 336.656,-45.6514"/>
<polygon fill="black" stroke="black" points="339.875,-44.2763 332.785,-36.4034 333.418,-46.9793 339.875,-44.2763"/>
</g>
<!-- 32 -->
<g id="node9" class="node"><title>32</title>
<path fill="#c0c0c0" stroke="black" d="M412.5,-36C412.5,-36 382.5,-36 382.5,-36 376.5,-36 370.5,-30 370.5,-24 370.5,-24 370.5,-12 370.5,-12 370.5,-6 376.5,-0 382.5,-0 382.5,-0 412.5,-0 412.5,-0 418.5,-0 424.5,-6 424.5,-12 424.5,-12 424.5,-24 424.5,-24 424.5,-30 418.5,-36 412.5,-36"/>
<text text-anchor="middle" x="397.5" y="-14.3" font-family="Helvetica,sans-Serif" font-size="14.00">(...)</text>
</g>
<!-- 14&#45;&gt;32 -->
<g id="edge8" class="edge"><title>14&#45;&gt;32</title>
<path fill="none" stroke="black" d="M375.316,-71.9961C378.964,-63.2804 382.855,-53.9846 386.344,-45.6514"/>
<polygon fill="black" stroke="black" points="389.582,-46.9793 390.215,-36.4034 383.125,-44.2763 389.582,-46.9793"/>
</g>
<!-- 34 -->
<g id="node11" class="node"><title>34</title>
<path fill="#8e4de8" stroke="black" d="M657.5,-140C657.5,-140 501.5,-140 501.5,-140 495.5,-140 489.5,-134 489.5,-128 489.5,-128 489.5,-84 489.5,-84 489.5,-78 495.5,-72 501.5,-72 501.5,-72 657.5,-72 657.5,-72 663.5,-72 669.5,-78 669.5,-84 669.5,-84 669.5,-128 669.5,-128 669.5,-134 663.5,-140 657.5,-140"/>
<text text-anchor="middle" x="579.5" y="-124.8" font-family="Helvetica,sans-Serif" font-size="14.00">activity_cal_total &lt;= 0.248</text>
<text text-anchor="middle" x="579.5" y="-109.8" font-family="Helvetica,sans-Serif" font-size="14.00">gini = 0.172</text>
<text text-anchor="middle" x="579.5" y="-94.8" font-family="Helvetica,sans-Serif" font-size="14.00">samples = 96</text>
<text text-anchor="middle" x="579.5" y="-79.8" font-family="Helvetica,sans-Serif" font-size="14.00">value = [8, 1, 87]</text>
</g>
<!-- 33&#45;&gt;34 -->
<g id="edge10" class="edge"><title>33&#45;&gt;34</title>
<path fill="none" stroke="black" d="M654.461,-175.884C644.477,-166.709 633.531,-156.65 623.163,-147.123"/>
<polygon fill="black" stroke="black" points="625.469,-144.488 615.738,-140.299 620.733,-149.643 625.469,-144.488"/>
</g>
<!-- 47 -->
<g id="node14" class="node"><title>47</title>
<path fill="#e58139" stroke="black" d="M789,-132.5C789,-132.5 700,-132.5 700,-132.5 694,-132.5 688,-126.5 688,-120.5 688,-120.5 688,-91.5 688,-91.5 688,-85.5 694,-79.5 700,-79.5 700,-79.5 789,-79.5 789,-79.5 795,-79.5 801,-85.5 801,-91.5 801,-91.5 801,-120.5 801,-120.5 801,-126.5 795,-132.5 789,-132.5"/>
<text text-anchor="middle" x="744.5" y="-117.3" font-family="Helvetica,sans-Serif" font-size="14.00">gini = 0.0</text>
<text text-anchor="middle" x="744.5" y="-102.3" font-family="Helvetica,sans-Serif" font-size="14.00">samples = 5</text>
<text text-anchor="middle" x="744.5" y="-87.3" font-family="Helvetica,sans-Serif" font-size="14.00">value = [5, 0, 0]</text>
</g>
<!-- 33&#45;&gt;47 -->
<g id="edge13" class="edge"><title>33&#45;&gt;47</title>
<path fill="none" stroke="black" d="M708.032,-175.884C713.855,-164.886 720.35,-152.617 726.227,-141.517"/>
<polygon fill="black" stroke="black" points="729.404,-142.995 730.989,-132.52 723.217,-139.72 729.404,-142.995"/>
</g>
<!-- 35 -->
<g id="node12" class="node"><title>35</title>
<path fill="#c0c0c0" stroke="black" d="M558.5,-36C558.5,-36 528.5,-36 528.5,-36 522.5,-36 516.5,-30 516.5,-24 516.5,-24 516.5,-12 516.5,-12 516.5,-6 522.5,-0 528.5,-0 528.5,-0 558.5,-0 558.5,-0 564.5,-0 570.5,-6 570.5,-12 570.5,-12 570.5,-24 570.5,-24 570.5,-30 564.5,-36 558.5,-36"/>
<text text-anchor="middle" x="543.5" y="-14.3" font-family="Helvetica,sans-Serif" font-size="14.00">(...)</text>
</g>
<!-- 34&#45;&gt;35 -->
<g id="edge11" class="edge"><title>34&#45;&gt;35</title>
<path fill="none" stroke="black" d="M565.684,-71.9961C562.036,-63.2804 558.145,-53.9846 554.656,-45.6514"/>
<polygon fill="black" stroke="black" points="557.875,-44.2763 550.785,-36.4034 551.418,-46.9793 557.875,-44.2763"/>
</g>
<!-- 46 -->
<g id="node13" class="node"><title>46</title>
<path fill="#c0c0c0" stroke="black" d="M630.5,-36C630.5,-36 600.5,-36 600.5,-36 594.5,-36 588.5,-30 588.5,-24 588.5,-24 588.5,-12 588.5,-12 588.5,-6 594.5,-0 600.5,-0 600.5,-0 630.5,-0 630.5,-0 636.5,-0 642.5,-6 642.5,-12 642.5,-12 642.5,-24 642.5,-24 642.5,-30 636.5,-36 630.5,-36"/>
<text text-anchor="middle" x="615.5" y="-14.3" font-family="Helvetica,sans-Serif" font-size="14.00">(...)</text>
</g>
<!-- 34&#45;&gt;46 -->
<g id="edge12" class="edge"><title>34&#45;&gt;46</title>
<path fill="none" stroke="black" d="M593.316,-71.9961C596.964,-63.2804 600.855,-53.9846 604.344,-45.6514"/>
<polygon fill="black" stroke="black" points="607.582,-46.9793 608.215,-36.4034 601.125,-44.2763 607.582,-46.9793"/>
</g>
<!-- 49 -->
<g id="node16" class="node"><title>49</title>
<path fill="#f6d2b9" stroke="black" d="M1062.5,-244C1062.5,-244 866.5,-244 866.5,-244 860.5,-244 854.5,-238 854.5,-232 854.5,-232 854.5,-188 854.5,-188 854.5,-182 860.5,-176 866.5,-176 866.5,-176 1062.5,-176 1062.5,-176 1068.5,-176 1074.5,-182 1074.5,-188 1074.5,-188 1074.5,-232 1074.5,-232 1074.5,-238 1068.5,-244 1062.5,-244"/>
<text text-anchor="middle" x="964.5" y="-228.8" font-family="Helvetica,sans-Serif" font-size="14.00">sleep_breath_average &lt;= 0.542</text>
<text text-anchor="middle" x="964.5" y="-213.8" font-family="Helvetica,sans-Serif" font-size="14.00">gini = 0.524</text>
<text text-anchor="middle" x="964.5" y="-198.8" font-family="Helvetica,sans-Serif" font-size="14.00">samples = 3251</text>
<text text-anchor="middle" x="964.5" y="-183.8" font-family="Helvetica,sans-Serif" font-size="14.00">value = [1908, 1168, 175]</text>
</g>
<!-- 48&#45;&gt;49 -->
<g id="edge15" class="edge"><title>48&#45;&gt;49</title>
<path fill="none" stroke="black" d="M964.5,-279.884C964.5,-271.778 964.5,-262.982 964.5,-254.472"/>
<polygon fill="black" stroke="black" points="968,-254.299 964.5,-244.299 961,-254.299 968,-254.299"/>
</g>
<!-- 384 -->
<g id="node23" class="node"><title>384</title>
<path fill="#efb388" stroke="black" d="M1363,-244C1363,-244 1216,-244 1216,-244 1210,-244 1204,-238 1204,-232 1204,-232 1204,-188 1204,-188 1204,-182 1210,-176 1216,-176 1216,-176 1363,-176 1363,-176 1369,-176 1375,-182 1375,-188 1375,-188 1375,-232 1375,-232 1375,-238 1369,-244 1363,-244"/>
<text text-anchor="middle" x="1289.5" y="-228.8" font-family="Helvetica,sans-Serif" font-size="14.00">sleep_restless &lt;= 0.489</text>
<text text-anchor="middle" x="1289.5" y="-213.8" font-family="Helvetica,sans-Serif" font-size="14.00">gini = 0.445</text>
<text text-anchor="middle" x="1289.5" y="-198.8" font-family="Helvetica,sans-Serif" font-size="14.00">samples = 4010</text>
<text text-anchor="middle" x="1289.5" y="-183.8" font-family="Helvetica,sans-Serif" font-size="14.00">value = [2808, 997, 205]</text>
</g>
<!-- 48&#45;&gt;384 -->
<g id="edge22" class="edge"><title>48&#45;&gt;384</title>
<path fill="none" stroke="black" d="M1070.02,-279.884C1109.92,-267.362 1155.06,-253.193 1193.99,-240.976"/>
<polygon fill="black" stroke="black" points="1195.25,-244.248 1203.74,-237.914 1193.15,-237.569 1195.25,-244.248"/>
</g>
<!-- 50 -->
<g id="node17" class="node"><title>50</title>
<path fill="#f3c5a4" stroke="black" d="M989.5,-140C989.5,-140 831.5,-140 831.5,-140 825.5,-140 819.5,-134 819.5,-128 819.5,-128 819.5,-84 819.5,-84 819.5,-78 825.5,-72 831.5,-72 831.5,-72 989.5,-72 989.5,-72 995.5,-72 1001.5,-78 1001.5,-84 1001.5,-84 1001.5,-128 1001.5,-128 1001.5,-134 995.5,-140 989.5,-140"/>
<text text-anchor="middle" x="910.5" y="-124.8" font-family="Helvetica,sans-Serif" font-size="14.00">sleep_hr_lowest &lt;= 0.409</text>
<text text-anchor="middle" x="910.5" y="-109.8" font-family="Helvetica,sans-Serif" font-size="14.00">gini = 0.505</text>
<text text-anchor="middle" x="910.5" y="-94.8" font-family="Helvetica,sans-Serif" font-size="14.00">samples = 2254</text>
<text text-anchor="middle" x="910.5" y="-79.8" font-family="Helvetica,sans-Serif" font-size="14.00">value = [1415, 703, 136]</text>
</g>
<!-- 49&#45;&gt;50 -->
<g id="edge16" class="edge"><title>49&#45;&gt;50</title>
<path fill="none" stroke="black" d="M946.968,-175.884C942.488,-167.422 937.61,-158.207 932.921,-149.352"/>
<polygon fill="black" stroke="black" points="935.901,-147.5 928.129,-140.299 929.715,-150.775 935.901,-147.5"/>
</g>
<!-- 249 -->
<g id="node20" class="node"><title>249</title>
<path fill="#fef8f5" stroke="black" d="M1169,-140C1169,-140 1032,-140 1032,-140 1026,-140 1020,-134 1020,-128 1020,-128 1020,-84 1020,-84 1020,-78 1026,-72 1032,-72 1032,-72 1169,-72 1169,-72 1175,-72 1181,-78 1181,-84 1181,-84 1181,-128 1181,-128 1181,-134 1175,-140 1169,-140"/>
<text text-anchor="middle" x="1100.5" y="-124.8" font-family="Helvetica,sans-Serif" font-size="14.00">sleep_rmssd &lt;= 0.179</text>
<text text-anchor="middle" x="1100.5" y="-109.8" font-family="Helvetica,sans-Serif" font-size="14.00">gini = 0.536</text>
<text text-anchor="middle" x="1100.5" y="-94.8" font-family="Helvetica,sans-Serif" font-size="14.00">samples = 997</text>
<text text-anchor="middle" x="1100.5" y="-79.8" font-family="Helvetica,sans-Serif" font-size="14.00">value = [493, 465, 39]</text>
</g>
<!-- 49&#45;&gt;249 -->
<g id="edge19" class="edge"><title>49&#45;&gt;249</title>
<path fill="none" stroke="black" d="M1008.66,-175.884C1021.13,-166.531 1034.82,-156.259 1047.74,-146.568"/>
<polygon fill="black" stroke="black" points="1050.2,-149.099 1056.1,-140.299 1046,-143.499 1050.2,-149.099"/>
</g>
<!-- 51 -->
<g id="node18" class="node"><title>51</title>
<path fill="#c0c0c0" stroke="black" d="M876.5,-36C876.5,-36 846.5,-36 846.5,-36 840.5,-36 834.5,-30 834.5,-24 834.5,-24 834.5,-12 834.5,-12 834.5,-6 840.5,-0 846.5,-0 846.5,-0 876.5,-0 876.5,-0 882.5,-0 888.5,-6 888.5,-12 888.5,-12 888.5,-24 888.5,-24 888.5,-30 882.5,-36 876.5,-36"/>
<text text-anchor="middle" x="861.5" y="-14.3" font-family="Helvetica,sans-Serif" font-size="14.00">(...)</text>
</g>
<!-- 50&#45;&gt;51 -->
<g id="edge17" class="edge"><title>50&#45;&gt;51</title>
<path fill="none" stroke="black" d="M891.695,-71.9961C886.622,-63.0909 881.203,-53.5802 876.376,-45.1093"/>
<polygon fill="black" stroke="black" points="879.407,-43.3593 871.416,-36.4034 873.325,-46.8247 879.407,-43.3593"/>
</g>
<!-- 184 -->
<g id="node19" class="node"><title>184</title>
<path fill="#c0c0c0" stroke="black" d="M948.5,-36C948.5,-36 918.5,-36 918.5,-36 912.5,-36 906.5,-30 906.5,-24 906.5,-24 906.5,-12 906.5,-12 906.5,-6 912.5,-0 918.5,-0 918.5,-0 948.5,-0 948.5,-0 954.5,-0 960.5,-6 960.5,-12 960.5,-12 960.5,-24 960.5,-24 960.5,-30 954.5,-36 948.5,-36"/>
<text text-anchor="middle" x="933.5" y="-14.3" font-family="Helvetica,sans-Serif" font-size="14.00">(...)</text>
</g>
<!-- 50&#45;&gt;184 -->
<g id="edge18" class="edge"><title>50&#45;&gt;184</title>
<path fill="none" stroke="black" d="M919.327,-71.9961C921.607,-63.4699 924.036,-54.3885 926.227,-46.1962"/>
<polygon fill="black" stroke="black" points="929.643,-46.9682 928.846,-36.4034 922.881,-45.1596 929.643,-46.9682"/>
</g>
<!-- 250 -->
<g id="node21" class="node"><title>250</title>
<path fill="#c0c0c0" stroke="black" d="M1065.5,-36C1065.5,-36 1035.5,-36 1035.5,-36 1029.5,-36 1023.5,-30 1023.5,-24 1023.5,-24 1023.5,-12 1023.5,-12 1023.5,-6 1029.5,-0 1035.5,-0 1035.5,-0 1065.5,-0 1065.5,-0 1071.5,-0 1077.5,-6 1077.5,-12 1077.5,-12 1077.5,-24 1077.5,-24 1077.5,-30 1071.5,-36 1065.5,-36"/>
<text text-anchor="middle" x="1050.5" y="-14.3" font-family="Helvetica,sans-Serif" font-size="14.00">(...)</text>
</g>
<!-- 249&#45;&gt;250 -->
<g id="edge20" class="edge"><title>249&#45;&gt;250</title>
<path fill="none" stroke="black" d="M1081.31,-71.9961C1076.13,-63.0909 1070.6,-53.5802 1065.68,-45.1093"/>
<polygon fill="black" stroke="black" points="1068.67,-43.2893 1060.62,-36.4034 1062.62,-46.8077 1068.67,-43.2893"/>
</g>
<!-- 351 -->
<g id="node22" class="node"><title>351</title>
<path fill="#c0c0c0" stroke="black" d="M1137.5,-36C1137.5,-36 1107.5,-36 1107.5,-36 1101.5,-36 1095.5,-30 1095.5,-24 1095.5,-24 1095.5,-12 1095.5,-12 1095.5,-6 1101.5,-0 1107.5,-0 1107.5,-0 1137.5,-0 1137.5,-0 1143.5,-0 1149.5,-6 1149.5,-12 1149.5,-12 1149.5,-24 1149.5,-24 1149.5,-30 1143.5,-36 1137.5,-36"/>
<text text-anchor="middle" x="1122.5" y="-14.3" font-family="Helvetica,sans-Serif" font-size="14.00">(...)</text>
</g>
<!-- 249&#45;&gt;351 -->
<g id="edge21" class="edge"><title>249&#45;&gt;351</title>
<path fill="none" stroke="black" d="M1108.94,-71.9961C1111.12,-63.4699 1113.45,-54.3885 1115.54,-46.1962"/>
<polygon fill="black" stroke="black" points="1118.96,-46.9589 1118.05,-36.4034 1112.18,-45.224 1118.96,-46.9589"/>
</g>
<!-- 385 -->
<g id="node24" class="node"><title>385</title>
<path fill="#eeaf81" stroke="black" d="M1367.5,-140C1367.5,-140 1211.5,-140 1211.5,-140 1205.5,-140 1199.5,-134 1199.5,-128 1199.5,-128 1199.5,-84 1199.5,-84 1199.5,-78 1205.5,-72 1211.5,-72 1211.5,-72 1367.5,-72 1367.5,-72 1373.5,-72 1379.5,-78 1379.5,-84 1379.5,-84 1379.5,-128 1379.5,-128 1379.5,-134 1373.5,-140 1367.5,-140"/>
<text text-anchor="middle" x="1289.5" y="-124.8" font-family="Helvetica,sans-Serif" font-size="14.00">activity_cal_total &lt;= 0.173</text>
<text text-anchor="middle" x="1289.5" y="-109.8" font-family="Helvetica,sans-Serif" font-size="14.00">gini = 0.414</text>
<text text-anchor="middle" x="1289.5" y="-94.8" font-family="Helvetica,sans-Serif" font-size="14.00">samples = 3433</text>
<text text-anchor="middle" x="1289.5" y="-79.8" font-family="Helvetica,sans-Serif" font-size="14.00">value = [2490, 834, 109]</text>
</g>
<!-- 384&#45;&gt;385 -->
<g id="edge23" class="edge"><title>384&#45;&gt;385</title>
<path fill="none" stroke="black" d="M1289.5,-175.884C1289.5,-167.778 1289.5,-158.982 1289.5,-150.472"/>
<polygon fill="black" stroke="black" points="1293,-150.299 1289.5,-140.299 1286,-150.299 1293,-150.299"/>
</g>
<!-- 570 -->
<g id="node27" class="node"><title>570</title>
<path fill="#f5d0b5" stroke="black" d="M1539.5,-140C1539.5,-140 1409.5,-140 1409.5,-140 1403.5,-140 1397.5,-134 1397.5,-128 1397.5,-128 1397.5,-84 1397.5,-84 1397.5,-78 1403.5,-72 1409.5,-72 1409.5,-72 1539.5,-72 1539.5,-72 1545.5,-72 1551.5,-78 1551.5,-84 1551.5,-84 1551.5,-128 1551.5,-128 1551.5,-134 1545.5,-140 1539.5,-140"/>
<text text-anchor="middle" x="1474.5" y="-124.8" font-family="Helvetica,sans-Serif" font-size="14.00">sleep_light &lt;= 0.59</text>
<text text-anchor="middle" x="1474.5" y="-109.8" font-family="Helvetica,sans-Serif" font-size="14.00">gini = 0.589</text>
<text text-anchor="middle" x="1474.5" y="-94.8" font-family="Helvetica,sans-Serif" font-size="14.00">samples = 577</text>
<text text-anchor="middle" x="1474.5" y="-79.8" font-family="Helvetica,sans-Serif" font-size="14.00">value = [318, 163, 96]</text>
</g>
<!-- 384&#45;&gt;570 -->
<g id="edge26" class="edge"><title>384&#45;&gt;570</title>
<path fill="none" stroke="black" d="M1349.56,-175.884C1367.43,-166.035 1387.14,-155.169 1405.52,-145.034"/>
<polygon fill="black" stroke="black" points="1407.35,-148.018 1414.42,-140.125 1403.97,-141.888 1407.35,-148.018"/>
</g>
<!-- 386 -->
<g id="node25" class="node"><title>386</title>
<path fill="#c0c0c0" stroke="black" d="M1268.5,-36C1268.5,-36 1238.5,-36 1238.5,-36 1232.5,-36 1226.5,-30 1226.5,-24 1226.5,-24 1226.5,-12 1226.5,-12 1226.5,-6 1232.5,-0 1238.5,-0 1238.5,-0 1268.5,-0 1268.5,-0 1274.5,-0 1280.5,-6 1280.5,-12 1280.5,-12 1280.5,-24 1280.5,-24 1280.5,-30 1274.5,-36 1268.5,-36"/>
<text text-anchor="middle" x="1253.5" y="-14.3" font-family="Helvetica,sans-Serif" font-size="14.00">(...)</text>
</g>
<!-- 385&#45;&gt;386 -->
<g id="edge24" class="edge"><title>385&#45;&gt;386</title>
<path fill="none" stroke="black" d="M1275.68,-71.9961C1272.04,-63.2804 1268.14,-53.9846 1264.66,-45.6514"/>
<polygon fill="black" stroke="black" points="1267.88,-44.2763 1260.79,-36.4034 1261.42,-46.9793 1267.88,-44.2763"/>
</g>
<!-- 435 -->
<g id="node26" class="node"><title>435</title>
<path fill="#c0c0c0" stroke="black" d="M1340.5,-36C1340.5,-36 1310.5,-36 1310.5,-36 1304.5,-36 1298.5,-30 1298.5,-24 1298.5,-24 1298.5,-12 1298.5,-12 1298.5,-6 1304.5,-0 1310.5,-0 1310.5,-0 1340.5,-0 1340.5,-0 1346.5,-0 1352.5,-6 1352.5,-12 1352.5,-12 1352.5,-24 1352.5,-24 1352.5,-30 1346.5,-36 1340.5,-36"/>
<text text-anchor="middle" x="1325.5" y="-14.3" font-family="Helvetica,sans-Serif" font-size="14.00">(...)</text>
</g>
<!-- 385&#45;&gt;435 -->
<g id="edge25" class="edge"><title>385&#45;&gt;435</title>
<path fill="none" stroke="black" d="M1303.32,-71.9961C1306.96,-63.2804 1310.86,-53.9846 1314.34,-45.6514"/>
<polygon fill="black" stroke="black" points="1317.58,-46.9793 1318.21,-36.4034 1311.12,-44.2763 1317.58,-46.9793"/>
</g>
<!-- 571 -->
<g id="node28" class="node"><title>571</title>
<path fill="#c0c0c0" stroke="black" d="M1453.5,-36C1453.5,-36 1423.5,-36 1423.5,-36 1417.5,-36 1411.5,-30 1411.5,-24 1411.5,-24 1411.5,-12 1411.5,-12 1411.5,-6 1417.5,-0 1423.5,-0 1423.5,-0 1453.5,-0 1453.5,-0 1459.5,-0 1465.5,-6 1465.5,-12 1465.5,-12 1465.5,-24 1465.5,-24 1465.5,-30 1459.5,-36 1453.5,-36"/>
<text text-anchor="middle" x="1438.5" y="-14.3" font-family="Helvetica,sans-Serif" font-size="14.00">(...)</text>
</g>
<!-- 570&#45;&gt;571 -->
<g id="edge27" class="edge"><title>570&#45;&gt;571</title>
<path fill="none" stroke="black" d="M1460.68,-71.9961C1457.04,-63.2804 1453.14,-53.9846 1449.66,-45.6514"/>
<polygon fill="black" stroke="black" points="1452.88,-44.2763 1445.79,-36.4034 1446.42,-46.9793 1452.88,-44.2763"/>
</g>
<!-- 662 -->
<g id="node29" class="node"><title>662</title>
<path fill="#c0c0c0" stroke="black" d="M1525.5,-36C1525.5,-36 1495.5,-36 1495.5,-36 1489.5,-36 1483.5,-30 1483.5,-24 1483.5,-24 1483.5,-12 1483.5,-12 1483.5,-6 1489.5,-0 1495.5,-0 1495.5,-0 1525.5,-0 1525.5,-0 1531.5,-0 1537.5,-6 1537.5,-12 1537.5,-12 1537.5,-24 1537.5,-24 1537.5,-30 1531.5,-36 1525.5,-36"/>
<text text-anchor="middle" x="1510.5" y="-14.3" font-family="Helvetica,sans-Serif" font-size="14.00">(...)</text>
</g>
<!-- 570&#45;&gt;662 -->
<g id="edge28" class="edge"><title>570&#45;&gt;662</title>
<path fill="none" stroke="black" d="M1488.32,-71.9961C1491.96,-63.2804 1495.86,-53.9846 1499.34,-45.6514"/>
<polygon fill="black" stroke="black" points="1502.58,-46.9793 1503.21,-36.4034 1496.12,-44.2763 1502.58,-46.9793"/>
</g>
</g>
</svg>
